<svg width="57" height="39" viewBox="0 0 57 39" fill="none" xmlns="http://www.w3.org/2000/svg">
  <path fill-rule="evenodd" clip-rule="evenodd" d="M50.6551 39C52.3882 39 53.7931 37.5951 53.7931 35.8621C53.7931 34.129 52.3882 32.7241 50.6551 32.7241C48.9221 32.7241 47.5172 34.129 47.5172 35.8621C47.5172 37.5951 48.9221 39 50.6551 39ZM50.6552 38.1034C51.8931 38.1034 52.8966 37.0999 52.8966 35.8621C52.8966 34.6242 51.8931 33.6207 50.6552 33.6207C49.4173 33.6207 48.4138 34.6242 48.4138 35.8621C48.4138 37.0999 49.4173 38.1034 50.6552 38.1034Z" fill="#000000"/>
  <path fill-rule="evenodd" clip-rule="evenodd" d="M27.3448 39C29.0779 39 30.4828 37.5951 30.4828 35.8621C30.4828 34.129 29.0779 32.7241 27.3448 32.7241C25.6118 32.7241 24.2069 34.129 24.2069 35.8621C24.2069 37.5951 25.6118 39 27.3448 39ZM27.3448 38.1034C28.5827 38.1034 29.5862 37.0999 29.5862 35.8621C29.5862 34.6242 28.5827 33.6207 27.3448 33.6207C26.1069 33.6207 25.1034 34.6242 25.1034 35.8621C25.1034 37.0999 26.1069 38.1034 27.3448 38.1034Z" fill="#000000"/>
  <path fill-rule="evenodd" clip-rule="evenodd" d="M45.7241 21.0688H50.1034C50.7329 21.0688 51.3257 21.3652 51.7034 21.8688L56.0827 27.7079C56.3424 28.0541 56.4827 28.4752 56.4827 28.9079V34.3102C56.4827 35.4148 55.5873 36.3102 54.4827 36.3102H52.8517C52.8811 36.1654 52.8966 36.0155 52.8966 35.8621C52.8966 35.7085 52.8811 35.5586 52.8517 35.4138H53.3448H54.5862C55.1385 35.4138 55.5862 34.9661 55.5862 34.4138V29.017C55.5862 28.8043 55.5184 28.5972 55.3926 28.4257L50.9548 22.3742C50.7665 22.1173 50.467 21.9655 50.1484 21.9655H46.6207V35.4138H47.9655H48.4586C48.4292 35.5586 48.4138 35.7085 48.4138 35.8621C48.4138 36.0155 48.4292 36.1654 48.4586 36.3102H45.7241V21.0688Z" fill="#000000"/>
  <rect x="48.6219" y="26.9509" width="3.58621" height="0.896552" rx="0.448276" transform="rotate(-45 48.6219 26.9509)" fill="#000000"/>
  <rect x="46.6207" y="28.2415" width="8.96552" height="0.896552" fill="#000000"/>
  <rect x="10.7587" y="26.4482" width="3.58621" height="0.896552" rx="0.448276" fill="#000000"/>
  <rect y="26.4482" width="8.96552" height="0.896552" rx="0.448276" fill="#000000"/>
  <rect x="7.17236" y="21.9656" width="4.48276" height="0.896552" rx="0.448276" fill="#000000"/>
  <rect x="5.37927" y="30.9312" width="8.96552" height="0.896552" rx="0.448276" fill="#000000"/>
  <rect x="2.6897" y="21.9656" width="2.68966" height="0.896552" rx="0.448276" fill="#000000"/>
  <rect x="48.4138" y="25.2224" width="2.07042" height="0.896552" rx="0.448276" transform="rotate(-45 48.4138 25.2224)" fill="#000000"/>
  <rect x="0.896606" y="30.9312" width="2.68966" height="0.896552" rx="0.448276" fill="#000000"/>
  <path fill-rule="evenodd" clip-rule="evenodd" d="M46.6207 19.4827V36.3103H29.5414C29.5708 36.1654 29.5862 36.0156 29.5862 35.8621C29.5862 35.7085 29.5708 35.5586 29.5414 35.4137H45.7241V19.3792C45.7241 18.8269 45.2764 18.3792 44.7241 18.3792H31.8276C31.58 18.3792 31.3793 18.1785 31.3793 17.9309C31.3793 17.6834 31.58 17.4827 31.8276 17.4827H44.6207C45.7253 17.4827 46.6207 18.3781 46.6207 19.4827ZM25.1483 35.4137H19.8276C19.2753 35.4137 18.8276 34.966 18.8276 34.4137V28.6896C18.8276 28.442 18.6269 28.2413 18.3793 28.2413C18.1317 28.2413 17.931 28.442 17.931 28.6896V34.3103C17.931 35.4148 18.8265 36.3103 19.931 36.3103H25.1483C25.1189 36.1654 25.1034 36.0156 25.1034 35.8621C25.1034 35.7085 25.1189 35.5586 25.1483 35.4137Z" fill="#000000"/>
  <path fill-rule="evenodd" clip-rule="evenodd" d="M16.7848 4.36788C16.9698 4.29537 17.1804 4.35321 17.3023 4.51L20.0726 8.07179L22.7911 4.5131C22.9089 4.35887 23.1126 4.29797 23.2958 4.36222L26.479 5.47901C26.5424 5.50127 26.6 5.5375 26.6475 5.58503L32.6789 11.6164C32.7664 11.7039 32.8138 11.8237 32.81 11.9474C32.8061 12.0711 32.7512 12.1877 32.6584 12.2696L28.6375 15.8158C28.46 15.9723 28.1914 15.9639 28.024 15.7966L26.7788 14.5514V18.2998C26.7788 18.5474 26.5781 18.7481 26.3306 18.7481C26.083 18.7481 25.8823 18.5474 25.8823 18.2998V13.4691C25.8823 13.2878 25.9915 13.1244 26.159 13.055C26.3265 12.9856 26.5193 13.0239 26.6475 13.1522L28.3603 14.8649L31.7074 11.9129L26.0858 6.2912L23.306 5.31595L20.4321 9.07818C20.3477 9.18866 20.2168 9.25373 20.0778 9.25433C19.9388 9.25494 19.8074 9.19101 19.722 9.08128L16.8003 5.32484L14.3511 6.28518L8.70296 11.9334L11.6152 14.8456L13.7834 12.6775C13.9116 12.5493 14.1044 12.5109 14.2719 12.5803C14.4394 12.6497 14.5486 12.8131 14.5486 12.9944V23.9945H21.7512C21.9988 23.9945 22.1995 24.1952 22.1995 24.4428C22.1995 24.6904 21.9988 24.8911 21.7512 24.8911H14.1003C13.8528 24.8911 13.6521 24.6904 13.6521 24.4428V14.0767L11.9322 15.7966C11.7571 15.9716 11.4733 15.9716 11.2982 15.7966L7.75202 12.2503C7.57696 12.0753 7.57696 11.7914 7.75202 11.6164L13.7834 5.58503C13.827 5.54138 13.8792 5.50721 13.9367 5.48467L16.7848 4.36788Z" fill="#000000"/>
  <path fill-rule="evenodd" clip-rule="evenodd" d="M24.2812 27.1351C25.0719 27.1351 25.7128 26.4941 25.7128 25.7034C25.7128 24.9128 25.0719 24.2718 24.2812 24.2718C23.4905 24.2718 22.8496 24.9128 22.8496 25.7034C22.8496 26.4941 23.4905 27.1351 24.2812 27.1351ZM24.2812 28.0316C25.567 28.0316 26.6094 26.9893 26.6094 25.7034C26.6094 24.4176 25.567 23.3752 24.2812 23.3752C22.9954 23.3752 21.953 24.4176 21.953 25.7034C21.953 26.9893 22.9954 28.0316 24.2812 28.0316Z" fill="#000000"/>
  <path fill-rule="evenodd" clip-rule="evenodd" d="M22.3381 22.259C22.7467 22.259 23.078 21.9278 23.078 21.5191C23.078 21.1104 22.7467 20.7791 22.3381 20.7791C21.9294 20.7791 21.5981 21.1104 21.5981 21.5191C21.5981 21.9278 21.9294 22.259 22.3381 22.259ZM22.3381 23.1556C23.2419 23.1556 23.9746 22.4229 23.9746 21.5191C23.9746 20.6153 23.2419 19.8826 22.3381 19.8826C21.4342 19.8826 20.7015 20.6153 20.7015 21.5191C20.7015 22.4229 21.4342 23.1556 22.3381 23.1556Z" fill="#000000"/>
  <path fill-rule="evenodd" clip-rule="evenodd" d="M26.3282 21.6658C27.1189 21.6658 27.7598 21.0249 27.7598 20.2342C27.7598 19.4435 27.1189 18.8026 26.3282 18.8026C25.5375 18.8026 24.8966 19.4435 24.8966 20.2342C24.8966 21.0249 25.5375 21.6658 26.3282 21.6658ZM26.3282 22.5624C27.614 22.5624 28.6564 21.52 28.6564 20.2342C28.6564 18.9484 27.614 17.906 26.3282 17.906C25.0424 17.906 24 18.9484 24 20.2342C24 21.52 25.0424 22.5624 26.3282 22.5624Z" fill="#000000"/>
  <path fill-rule="evenodd" clip-rule="evenodd" d="M23.4867 25.1528C23.7343 25.1528 23.935 25.3535 23.935 25.6011C23.935 25.863 24.1473 26.0753 24.4092 26.0753C24.6567 26.0753 24.8574 26.276 24.8574 26.5236C24.8574 26.7711 24.6567 26.9718 24.4092 26.9718C23.6521 26.9718 23.0385 26.3581 23.0385 25.6011C23.0385 25.3535 23.2392 25.1528 23.4867 25.1528Z" fill="#000000"/>
  <path fill-rule="evenodd" clip-rule="evenodd" d="M25.5337 19.6838C25.7813 19.6838 25.982 19.8845 25.982 20.1321C25.982 20.394 26.1943 20.6063 26.4562 20.6063C26.7037 20.6063 26.9044 20.807 26.9044 21.0546C26.9044 21.3021 26.7037 21.5028 26.4562 21.5028C25.6991 21.5028 25.0854 20.8891 25.0854 20.1321C25.0854 19.8845 25.2861 19.6838 25.5337 19.6838Z" fill="#000000"/>
  <path fill-rule="evenodd" clip-rule="evenodd" d="M20.0275 3.91016L22.9315 4.85693L22.6536 5.70932L20.0322 4.85468L17.5003 5.70793L17.214 4.85833L20.0275 3.91016Z" fill="#000000"/>
  <path fill-rule="evenodd" clip-rule="evenodd" d="M19.2498 1.15955C19.0965 1.30908 19.0067 1.52068 19.0067 1.76968C19.0067 2.01726 18.806 2.21796 18.5584 2.21796C18.3108 2.21796 18.1101 2.01726 18.1101 1.76968C18.1101 1.29791 18.2845 0.848806 18.6237 0.51783C18.9643 0.185558 19.4421 0 19.9998 0C20.5949 0 21.045 0.251419 21.3369 0.613735C21.6176 0.962121 21.7394 1.39521 21.7394 1.76968C21.7394 2.19903 21.6425 2.55108 21.4742 2.83283C21.3063 3.114 21.082 3.30063 20.8639 3.42231C20.7178 3.50387 20.5737 3.55681 20.4481 3.59138V4.3822H19.5516V3.21173C19.5516 2.96547 19.7501 2.7649 19.9959 2.76278C19.9963 2.76277 19.9969 2.76275 19.9977 2.76273C20.0012 2.76259 20.0088 2.76224 20.0197 2.76137C20.0417 2.75961 20.0765 2.75583 20.1196 2.74781C20.2077 2.73142 20.3196 2.69939 20.427 2.63943C20.5318 2.58094 20.6303 2.49732 20.7045 2.37311C20.7783 2.24948 20.8429 2.06101 20.8429 1.76968C20.8429 1.57353 20.7755 1.34591 20.6388 1.17625C20.5133 1.02052 20.3177 0.896552 19.9998 0.896552C19.6447 0.896552 19.4017 1.01131 19.2498 1.15955Z" fill="#000000"/>
</svg>
